<svg xmlns="http://www.w3.org/2000/svg" viewBox="0 0 420 120">
  <defs>
    <filter id="g"><feGaussianBlur stdDeviation="2" result="b"/><feMerge><feMergeNode in="b"/><feMergeNode in="SourceGraphic"/></feMerge></filter>
  </defs>
  <g fill="none" stroke="#79f2b1" stroke-width="4" stroke-linecap="round" stroke-linejoin="round" opacity=".9">
    <circle cx="58" cy="40" r="10"/><path d="M58 51l-11 24 24-8 18 15M49 60l-21 7M70 58l18-13"/><path d="M88 45l19 13"/><ellipse cx="112" cy="62" rx="13" ry="20" transform="rotate(34 112 62)"/>
    <circle cx="360" cy="40" r="10"/><path d="M360 51l11 24-24-8-18 15M369 60l21 7M348 58l-18-13"/><path d="M330 45l-19 13"/><ellipse cx="306" cy="62" rx="13" ry="20" transform="rotate(-34 306 62)"/>
  </g>
  <path d="M126 49 Q210 -6 294 49" fill="none" stroke="#79f2b1" stroke-width="2" stroke-dasharray="5 8" opacity=".35"/>
  <circle r="7" fill="#b7ff43" filter="url(#g)">
    <animateMotion dur="1.4s" repeatCount="indefinite" path="M126 49 Q210 -6 294 49 Q210 105 126 49"/>
  </circle>
</svg>
